<svg xmlns="http://www.w3.org/2000/svg" viewBox="0 0 512 512">
  <circle cx="256" cy="256" r="256" fill="#0284c7"/>
  <rect x="40" y="110" width="285" height="235" rx="35" fill="#ffffff"/>
  <path d="M 310 155 H 395 C 420 155, 440 175, 455 205 L 472 255 C 478 270, 480 285, 480 300 V 345 H 310 Z" fill="#ffffff"/>
  <path fill="#dc2626" d="M 155 160 H 210 V 200 H 250 V 255 H 210 V 295 H 155 V 255 H 115 V 200 H 155 Z"/>
  <path fill="#0284c7" d="M 330 180 H 390 C 405 180, 415 190, 425 210 L 438 240 H 330 Z"/>
  <circle cx="140" cy="365" r="58" fill="#0f172a"/>
  <circle cx="140" cy="365" r="24" fill="#ffffff"/>
  <circle cx="375" cy="365" r="58" fill="#0f172a"/>
  <circle cx="375" cy="365" r="24" fill="#ffffff"/>
</svg>
