<svg xmlns="http://www.w3.org/2000/svg" viewBox="0 0 512 512">
  <defs>
    <linearGradient id="bgGrad" x1="0%" y1="0%" x2="100%" y2="100%">
      <stop offset="0%" stop-color="#0284c7"/>
      <stop offset="100%" stop-color="#0369a1"/>
    </linearGradient>
  </defs>
  <circle cx="256" cy="256" r="240" fill="url(#bgGrad)"/>
  <g fill="#ffffff">
    <path d="M110 180 h190 c15 0 25 10 25 25 v110 c0 15 -10 25 -25 25 h-190 c-15 0 -25 -10 -25 -25 v-110 c0 -15 10 -25 25 -25 z"/>
    <path d="M300 215 h55 c15 0 25 10 35 25 l22 38 c5 8 8 15 8 25 v37 c0 12 -10 20 -20 20 h-100 v-145 z"/>
    <path fill="#ef4444" d="M190 220 h30 v25 h25 v30 h-25 v25 h-30 v-25 h-25 v-30 h25 z"/>
    <path fill="#0284c7" d="M320 232 h38 c8 0 14 5 18 14 l14 24 h-70 v-38 z"/>
    <circle cx="165" cy="340" r="36" fill="#0f172a"/>
    <circle cx="165" cy="340" r="16" fill="#ffffff"/>
    <circle cx="335" cy="340" r="36" fill="#0f172a"/>
    <circle cx="335" cy="340" r="16" fill="#ffffff"/>
  </g>
</svg>
